<svg xmlns="http://www.w3.org/2000/svg" xmlns:xlink="http://www.w3.org/1999/xlink" width="500" zoomAndPan="magnify" viewBox="0 0 375 374.999991" height="500" preserveAspectRatio="xMidYMid meet" version="1.0"><defs><g/></defs><g fill="#ffe0e9" fill-opacity="1"><g transform="translate(50.183854, 229.718891)"><g><path d="M 7.59375 0 L 7.59375 -1.96875 C 9.925781 -2.675781 11.519531 -4.195312 12.375 -6.53125 C 13.238281 -8.863281 13.671875 -13.117188 13.671875 -19.296875 L 13.671875 -80.984375 C 13.671875 -86.753906 13.316406 -91.234375 12.609375 -94.421875 C 11.898438 -97.617188 10.859375 -99.925781 9.484375 -101.34375 C 8.117188 -102.757812 6.425781 -103.769531 4.40625 -104.375 L 4.40625 -106.359375 L 22.796875 -106.359375 L 62.453125 -40.875 L 101.34375 -106.359375 L 118.515625 -106.359375 L 118.515625 -104.375 C 116.484375 -103.769531 114.785156 -102.757812 113.421875 -101.34375 C 112.054688 -99.925781 111.019531 -97.617188 110.3125 -94.421875 C 109.601562 -91.234375 109.25 -86.753906 109.25 -80.984375 L 109.25 -19.296875 C 109.25 -13.117188 109.675781 -8.863281 110.53125 -6.53125 C 111.394531 -4.195312 112.992188 -2.675781 115.328125 -1.96875 L 115.328125 0 L 90.703125 0 L 90.703125 -1.96875 C 93.035156 -2.675781 94.628906 -4.195312 95.484375 -6.53125 C 96.347656 -8.863281 96.78125 -13.117188 96.78125 -19.296875 L 96.78125 -94.046875 L 58.1875 -28.875 L 55.3125 -28.875 L 16.40625 -92.828125 L 16.40625 -25.375 C 16.40625 -19.601562 16.8125 -15.144531 17.625 -12 C 18.4375 -8.863281 19.597656 -6.5625 21.109375 -5.09375 C 22.628906 -3.625 24.503906 -2.582031 26.734375 -1.96875 L 26.734375 0 Z M 7.59375 0 "/></g></g></g><g fill="#ffe0e9" fill-opacity="1"><g transform="translate(176.440631, 229.718891)"><g><path d="M 54.234375 -88.421875 C 52.015625 -94.203125 49.96875 -98.128906 48.09375 -100.203125 C 46.21875 -102.273438 44.414062 -103.664062 42.6875 -104.375 L 42.6875 -106.359375 L 65.9375 -106.359375 L 65.9375 -104.375 C 63.707031 -103.664062 62.796875 -102.273438 63.203125 -100.203125 C 63.609375 -98.128906 64.976562 -94.253906 67.3125 -88.578125 L 75.515625 -68.53125 L 82.8125 -88.28125 C 84.726562 -93.34375 85.535156 -97.164062 85.234375 -99.75 C 84.929688 -102.332031 83.515625 -103.875 80.984375 -104.375 L 80.984375 -106.359375 L 97.703125 -106.359375 L 97.703125 -104.375 C 95.566406 -103.664062 93.535156 -102.25 91.609375 -100.125 C 89.691406 -98 87.671875 -94.050781 85.546875 -88.28125 L 77.03125 -65.03125 L 97.546875 -15.34375 L 123.984375 -88.28125 C 127.523438 -97.894531 126.710938 -103.257812 121.546875 -104.375 L 121.546875 -106.359375 L 138.71875 -106.359375 L 138.71875 -104.375 C 136.59375 -103.664062 134.566406 -102.25 132.640625 -100.125 C 130.710938 -98 128.6875 -94.050781 126.5625 -88.28125 L 94.8125 0 L 90.5625 0 L 69.4375 -51.5 L 48.46875 0 L 44.21875 0 L 10.640625 -88.28125 C 8.410156 -94.15625 6.40625 -98.128906 4.625 -100.203125 C 2.851562 -102.273438 1.109375 -103.664062 -0.609375 -104.375 L -0.609375 -106.359375 L 22.9375 -106.359375 L 22.9375 -104.375 C 20.613281 -103.664062 19.601562 -102.273438 19.90625 -100.203125 C 20.207031 -98.128906 21.472656 -94.15625 23.703125 -88.28125 L 51.8125 -15.046875 L 68.0625 -54.84375 Z M 54.234375 -88.421875 "/></g></g></g><g fill="#000000" fill-opacity="1"><g transform="translate(85.661944, 197.643137)"><g><path d="M 74.8125 -41.125 C 74.726562 -40.925781 74.644531 -40.722656 74.5625 -40.515625 C 73.769531 -38.441406 72.914062 -36.40625 72 -34.40625 C 67.25 -24.53125 62.144531 -14.984375 56.6875 -5.765625 C 54.914062 -2.785156 53.101562 0.140625 51.25 3.015625 C 49.394531 5.890625 47.53125 8.753906 45.65625 11.609375 C 45.21875 12.273438 44.769531 12.945312 44.3125 13.625 C 44.289062 13.675781 44.269531 13.710938 44.25 13.734375 C 44.144531 13.941406 44.023438 14.113281 43.890625 14.25 C 43.753906 14.382812 43.570312 14.453125 43.34375 14.453125 C 43.238281 14.453125 43.128906 14.425781 43.015625 14.375 C 42.898438 14.320312 42.8125 14.257812 42.75 14.1875 C 42.6875 14.113281 42.644531 14 42.625 13.84375 C 42.601562 13.695312 42.613281 13.578125 42.65625 13.484375 C 42.96875 12.828125 43.3125 12.203125 43.6875 11.609375 C 44.519531 10.234375 45.363281 8.859375 46.21875 7.484375 C 47.820312 4.921875 49.394531 2.359375 50.9375 -0.203125 C 54.375 -5.929688 57.65625 -11.773438 60.78125 -17.734375 C 63.90625 -23.703125 66.957031 -29.734375 69.9375 -35.828125 C 71.125 -38.179688 72.101562 -40.695312 72.875 -43.375 C 73.039062 -43.84375 73.164062 -44.328125 73.25 -44.828125 C 73.332031 -45.328125 73.375 -45.84375 73.375 -46.375 C 73.289062 -47.519531 72.800781 -48.019531 71.90625 -47.875 C 71.113281 -47.71875 70.363281 -47.46875 69.65625 -47.125 C 67.988281 -46.320312 66.34375 -45.429688 64.71875 -44.453125 C 55.988281 -39.160156 48.039062 -32.585938 40.875 -24.734375 C 40.769531 -24.609375 40.65625 -24.484375 40.53125 -24.359375 C 38.050781 -21.660156 35.59375 -18.941406 33.15625 -16.203125 C 30.71875 -13.460938 28.351562 -10.644531 26.0625 -7.75 C 25.582031 -7.15625 25.082031 -6.59375 24.5625 -6.0625 C 24 -5.488281 23.332031 -5.265625 22.5625 -5.390625 C 22.238281 -5.429688 21.96875 -5.59375 21.75 -5.875 C 21.539062 -6.15625 21.460938 -6.484375 21.515625 -6.859375 C 21.671875 -7.878906 21.894531 -8.863281 22.1875 -9.8125 C 23.113281 -12.832031 24.09375 -15.816406 25.125 -18.765625 C 25.269531 -19.222656 25.40625 -19.660156 25.53125 -20.078125 C 25.800781 -21.179688 26.1875 -22.195312 26.6875 -23.125 C 26.6875 -23.144531 26.675781 -23.15625 26.65625 -23.15625 C 26.53125 -23.226562 26.40625 -23.285156 26.28125 -23.328125 C 26.15625 -23.367188 26.03125 -23.328125 25.90625 -23.203125 C 25.445312 -22.703125 25.007812 -22.175781 24.59375 -21.625 C 21.132812 -16.945312 17.710938 -12.226562 14.328125 -7.46875 C 10.941406 -2.707031 7.640625 2.132812 4.421875 7.0625 C 4.140625 7.53125 3.832031 7.914062 3.5 8.21875 C 3.164062 8.519531 2.722656 8.617188 2.171875 8.515625 C 1.921875 8.453125 1.722656 8.300781 1.578125 8.0625 C 1.441406 7.820312 1.414062 7.585938 1.5 7.359375 C 1.789062 6.691406 2.113281 6.054688 2.46875 5.453125 C 3.46875 3.722656 4.457031 1.992188 5.4375 0.265625 C 7.40625 -3.148438 9.351562 -6.582031 11.28125 -10.03125 C 14.28125 -15.332031 16.957031 -20.910156 19.3125 -26.765625 C 20.226562 -29.015625 20.976562 -31.375 21.5625 -33.84375 C 21.875 -35.164062 22.007812 -36.539062 21.96875 -37.96875 C 21.820312 -40.269531 21.0625 -41.910156 19.6875 -42.890625 C 18.3125 -43.878906 16.503906 -44.347656 14.265625 -44.296875 C 12.023438 -44.253906 9.539062 -43.800781 6.8125 -42.9375 C 4.09375 -42.070312 1.300781 -40.925781 -1.5625 -39.5 C -4.425781 -38.082031 -7.1875 -36.515625 -9.84375 -34.796875 C -12.507812 -33.085938 -14.878906 -31.351562 -16.953125 -29.59375 C -19.023438 -27.832031 -20.640625 -26.175781 -21.796875 -24.625 C -23.015625 -22.925781 -24.050781 -21.050781 -24.90625 -19 C -25.332031 -18.019531 -25.582031 -16.957031 -25.65625 -15.8125 C -25.675781 -15.582031 -25.785156 -15.410156 -25.984375 -15.296875 C -26.191406 -15.191406 -26.421875 -15.160156 -26.671875 -15.203125 C -27.066406 -15.328125 -27.316406 -15.640625 -27.421875 -16.140625 C -27.492188 -16.796875 -27.441406 -17.398438 -27.265625 -17.953125 C -26.890625 -19.328125 -26.390625 -20.625 -25.765625 -21.84375 C -24.617188 -24 -22.875 -26.191406 -20.53125 -28.421875 C -18.195312 -30.660156 -15.472656 -32.804688 -12.359375 -34.859375 C -9.242188 -36.910156 -5.992188 -38.738281 -2.609375 -40.34375 C 0.773438 -41.957031 4.085938 -43.207031 7.328125 -44.09375 C 10.566406 -44.988281 13.484375 -45.390625 16.078125 -45.296875 C 18.671875 -45.210938 20.71875 -44.5 22.21875 -43.15625 C 23.71875 -41.820312 24.445312 -39.71875 24.40625 -36.84375 C 24.320312 -35 24.03125 -33.238281 23.53125 -31.5625 C 22.8125 -29.113281 21.972656 -26.742188 21.015625 -24.453125 C 20.066406 -22.160156 19.0625 -19.914062 18 -17.71875 C 17.664062 -17.039062 17.59375 -16.707031 17.78125 -16.71875 C 17.96875 -16.738281 18.25 -17 18.625 -17.5 C 19.976562 -19.300781 21.332031 -21.078125 22.6875 -22.828125 C 23.601562 -23.992188 24.539062 -25.140625 25.5 -26.265625 C 25.625 -26.421875 25.75 -26.570312 25.875 -26.71875 C 26.414062 -27.394531 27.070312 -27.847656 27.84375 -28.078125 C 28.425781 -28.203125 28.914062 -28.066406 29.3125 -27.671875 C 29.707031 -27.285156 29.84375 -26.707031 29.71875 -25.9375 C 29.695312 -25.863281 29.675781 -25.785156 29.65625 -25.703125 C 29.445312 -24.703125 29.207031 -23.726562 28.9375 -22.78125 C 28.207031 -20.476562 27.457031 -18.191406 26.6875 -15.921875 C 26.3125 -14.742188 25.9375 -13.554688 25.5625 -12.359375 C 25.488281 -12.179688 25.375 -11.867188 25.21875 -11.421875 C 25.070312 -11.023438 24.929688 -10.628906 24.796875 -10.234375 C 24.660156 -9.847656 24.550781 -9.554688 24.46875 -9.359375 C 24.570312 -9.429688 25.5 -10.46875 27.25 -12.46875 C 29.625 -15.195312 32.4375 -18.390625 35.6875 -22.046875 C 38.9375 -25.710938 41.488281 -28.507812 43.34375 -30.4375 C 46.757812 -33.882812 50.363281 -37.019531 54.15625 -39.84375 C 57.945312 -42.664062 61.875 -45.21875 65.9375 -47.5 C 66.9375 -48.019531 67.96875 -48.492188 69.03125 -48.921875 C 69.257812 -48.992188 69.476562 -49.082031 69.6875 -49.1875 C 70.6875 -49.582031 71.75 -49.726562 72.875 -49.625 C 75.039062 -49.425781 76.03125 -48.066406 75.84375 -45.546875 C 75.71875 -43.972656 75.375 -42.5 74.8125 -41.125 Z M 26.578125 -23.265625 C 26.628906 -23.222656 26.664062 -23.1875 26.6875 -23.15625 C 26.6875 -23.15625 26.6875 -23.144531 26.6875 -23.125 C 26.707031 -23.125 26.71875 -23.132812 26.71875 -23.15625 C 26.675781 -23.1875 26.628906 -23.222656 26.578125 -23.265625 Z M 26.578125 -23.265625 "/></g></g></g><g fill="#000000" fill-opacity="1"><g transform="translate(149.188885, 197.643137)"><g><path d="M 12.359375 -8.671875 C 12.628906 -8.523438 12.648438 -8.15625 12.421875 -7.5625 C 12.097656 -7.132812 11.75 -6.734375 11.375 -6.359375 C 11 -5.984375 10.585938 -5.648438 10.140625 -5.359375 C 10.109375 -5.359375 10.09375 -5.34375 10.09375 -5.3125 C 9.789062 -5.113281 9.476562 -4.941406 9.15625 -4.796875 C 6.4375 -3.816406 5.050781 -4.390625 5 -6.515625 C 3.894531 -5.554688 3.15625 -4.96875 2.78125 -4.75 C 1.882812 -4.21875 0.910156 -3.984375 -0.140625 -4.046875 C -0.910156 -4.085938 -1.429688 -4.320312 -1.703125 -4.75 C -1.984375 -5.175781 -1.960938 -5.753906 -1.640625 -6.484375 C -1.140625 -7.628906 -0.425781 -8.648438 0.5 -9.546875 C 1.570312 -10.546875 2.769531 -11.347656 4.09375 -11.953125 C 4.789062 -12.296875 5.53125 -12.429688 6.3125 -12.359375 C 7.082031 -12.304688 7.546875 -11.867188 7.703125 -11.046875 C 7.773438 -10.796875 7.710938 -10.570312 7.515625 -10.375 C 7.265625 -10.144531 6.972656 -10.09375 6.640625 -10.21875 C 6.617188 -10.21875 6.585938 -10.222656 6.546875 -10.234375 C 6.515625 -10.253906 6.484375 -10.273438 6.453125 -10.296875 C 6.128906 -10.742188 5.796875 -10.929688 5.453125 -10.859375 C 5.117188 -10.785156 4.765625 -10.632812 4.390625 -10.40625 C 2.640625 -9.382812 1.34375 -7.960938 0.5 -6.140625 C 0.445312 -6.054688 0.414062 -5.96875 0.40625 -5.875 C 0.394531 -5.78125 0.425781 -5.703125 0.5 -5.640625 C 0.695312 -5.578125 0.921875 -5.59375 1.171875 -5.6875 C 1.421875 -5.78125 1.671875 -5.921875 1.921875 -6.109375 C 2.171875 -6.296875 2.382812 -6.453125 2.5625 -6.578125 C 2.582031 -6.609375 2.59375 -6.625 2.59375 -6.625 C 3.414062 -7.320312 4.226562 -8.035156 5.03125 -8.765625 C 5.382812 -9.140625 5.820312 -9.347656 6.34375 -9.390625 C 7.09375 -9.390625 7.40625 -9.054688 7.28125 -8.390625 C 7.207031 -8.140625 7.132812 -7.890625 7.0625 -7.640625 C 6.757812 -6.554688 6.742188 -5.921875 7.015625 -5.734375 C 7.296875 -5.546875 7.71875 -5.546875 8.28125 -5.734375 C 8.84375 -5.921875 9.40625 -6.28125 9.96875 -6.8125 C 10.53125 -7.34375 11.003906 -7.820312 11.390625 -8.25 C 11.773438 -8.6875 12.097656 -8.828125 12.359375 -8.671875 Z M 12.359375 -8.671875 "/></g></g></g><g fill="#000000" fill-opacity="1"><g transform="translate(159.788457, 197.643137)"><g><path d="M 8.171875 -10.453125 C 8.078125 -9.671875 7.710938 -9.160156 7.078125 -8.921875 C 6.441406 -8.691406 6.234375 -9.003906 6.453125 -9.859375 C 6.671875 -10.722656 6.28125 -10.941406 5.28125 -10.515625 C 4.28125 -10.097656 3.457031 -9.5625 2.8125 -8.90625 C 1.8125 -7.882812 0.925781 -6.785156 0.15625 -5.609375 C 0.0703125 -5.503906 0.0078125 -5.421875 -0.03125 -5.359375 C -0.257812 -5.023438 -0.488281 -4.710938 -0.71875 -4.421875 C -0.863281 -4.210938 -1.035156 -4.082031 -1.234375 -4.03125 C -1.429688 -3.976562 -1.632812 -3.96875 -1.84375 -4 C -2.03125 -4.03125 -2.175781 -4.109375 -2.28125 -4.234375 C -2.382812 -4.359375 -2.394531 -4.503906 -2.3125 -4.671875 C -2.1875 -4.972656 -2.039062 -5.285156 -1.875 -5.609375 C -0.851562 -7.503906 0.1875 -9.40625 1.25 -11.3125 C 1.269531 -11.332031 1.28125 -11.359375 1.28125 -11.390625 C 1.425781 -11.679688 1.601562 -11.953125 1.8125 -12.203125 C 2.03125 -12.453125 2.285156 -12.550781 2.578125 -12.5 C 2.878906 -12.457031 3.082031 -12.285156 3.1875 -11.984375 C 3.3125 -11.585938 3.414062 -11.363281 3.5 -11.3125 C 3.59375 -11.257812 3.800781 -11.296875 4.125 -11.421875 C 4.800781 -11.671875 5.460938 -11.84375 6.109375 -11.9375 C 6.765625 -12.039062 7.296875 -12.015625 7.703125 -11.859375 C 8.117188 -11.710938 8.273438 -11.242188 8.171875 -10.453125 Z M 8.171875 -10.453125 "/></g></g></g><g fill="#000000" fill-opacity="1"><g transform="translate(167.610443, 197.643137)"><g><path d="M 6.765625 -7.1875 C 6.160156 -6.46875 5.441406 -5.804688 4.609375 -5.203125 C 3.785156 -4.597656 2.847656 -4.191406 1.796875 -3.984375 C 0.753906 -3.773438 -0.0507812 -3.847656 -0.625 -4.203125 C -1.207031 -4.566406 -1.320312 -5.375 -0.96875 -6.625 C -0.519531 -7.925781 0.101562 -9.160156 0.90625 -10.328125 C 1.082031 -10.578125 1.34375 -10.753906 1.6875 -10.859375 C 1.9375 -10.910156 2.15625 -10.863281 2.34375 -10.71875 C 2.53125 -10.582031 2.601562 -10.40625 2.5625 -10.1875 C 2.382812 -9.78125 2.191406 -9.375 1.984375 -8.96875 C 1.785156 -8.5625 1.648438 -8.296875 1.578125 -8.171875 C 1.179688 -7.441406 0.90625 -6.675781 0.75 -5.875 C 0.75 -5.425781 1.351562 -5.398438 2.5625 -5.796875 C 3.78125 -6.191406 4.960938 -6.921875 6.109375 -7.984375 C 7.265625 -9.046875 7.816406 -9.359375 7.765625 -8.921875 C 7.710938 -8.484375 7.378906 -7.90625 6.765625 -7.1875 Z M 3.796875 -12.890625 C 3.742188 -12.835938 3.628906 -12.78125 3.453125 -12.71875 C 3.273438 -12.65625 3.085938 -12.609375 2.890625 -12.578125 C 2.691406 -12.554688 2.535156 -12.585938 2.421875 -12.671875 C 2.304688 -12.765625 2.300781 -12.945312 2.40625 -13.21875 C 2.582031 -13.695312 2.769531 -14.113281 2.96875 -14.46875 C 3.164062 -14.832031 3.425781 -15.226562 3.75 -15.65625 C 3.957031 -15.851562 4.175781 -15.957031 4.40625 -15.96875 C 4.644531 -15.988281 4.84375 -15.925781 5 -15.78125 C 5.164062 -15.644531 5.210938 -15.453125 5.140625 -15.203125 C 4.890625 -14.304688 4.441406 -13.535156 3.796875 -12.890625 Z M 3.796875 -12.890625 "/></g></g></g><g fill="#000000" fill-opacity="1"><g transform="translate(173.55799, 197.643137)"><g><path d="M 9.71875 -6.546875 C 9.0625 -5.898438 8.296875 -5.34375 7.421875 -4.875 C 6.546875 -4.414062 5.8125 -4.113281 5.21875 -3.96875 C 4.625 -3.832031 4.015625 -3.753906 3.390625 -3.734375 C 2.390625 -3.691406 1.46875 -3.828125 0.625 -4.140625 C -0.75 -4.703125 -1.222656 -5.765625 -0.796875 -7.328125 C -0.398438 -8.679688 0.398438 -9.738281 1.609375 -10.5 C 2.828125 -11.257812 4.085938 -11.628906 5.390625 -11.609375 C 5.390625 -11.609375 5.398438 -11.609375 5.421875 -11.609375 C 5.753906 -11.628906 6.066406 -11.601562 6.359375 -11.53125 C 6.859375 -11.351562 7.175781 -11.054688 7.3125 -10.640625 C 7.445312 -10.234375 7.359375 -9.78125 7.046875 -9.28125 C 6.316406 -8.1875 5.328125 -7.578125 4.078125 -7.453125 C 3.242188 -7.367188 2.441406 -7.40625 1.671875 -7.5625 C 1.523438 -7.59375 1.394531 -7.554688 1.28125 -7.453125 C 1.164062 -7.347656 1.097656 -7.222656 1.078125 -7.078125 C 0.847656 -6.097656 1.148438 -5.472656 1.984375 -5.203125 C 3.003906 -4.847656 4.066406 -4.847656 5.171875 -5.203125 C 6.441406 -5.597656 7.648438 -6.34375 8.796875 -7.4375 C 9.941406 -8.539062 10.601562 -9.054688 10.78125 -8.984375 C 10.957031 -8.910156 11.007812 -8.703125 10.9375 -8.359375 C 10.78125 -7.796875 10.375 -7.191406 9.71875 -6.546875 Z M 2.453125 -9.28125 C 2.390625 -9.207031 2.34375 -9.117188 2.3125 -9.015625 C 2.28125 -8.921875 2.316406 -8.835938 2.421875 -8.765625 C 2.816406 -8.535156 3.25 -8.453125 3.71875 -8.515625 C 4.1875 -8.578125 4.582031 -8.75 4.90625 -9.03125 C 5.226562 -9.320312 5.363281 -9.679688 5.3125 -10.109375 C 5.28125 -10.253906 5.203125 -10.347656 5.078125 -10.390625 C 4.953125 -10.429688 4.828125 -10.4375 4.703125 -10.40625 C 3.859375 -10.257812 3.109375 -9.882812 2.453125 -9.28125 Z M 2.453125 -9.28125 "/></g></g></g><g fill="#000000" fill-opacity="1"><g transform="translate(182.777287, 197.643137)"><g/></g></g><g fill="#000000" fill-opacity="1"><g transform="translate(194.961607, 197.643137)"><g><path d="M 124.015625 -52.1875 C 122.578125 -53.957031 121.015625 -55.539062 119.328125 -56.9375 C 117.640625 -58.34375 115.835938 -59.59375 113.921875 -60.6875 C 109.066406 -63.414062 104.066406 -64.878906 98.921875 -65.078125 C 93.773438 -65.273438 88.585938 -64.460938 83.359375 -62.640625 C 78.128906 -60.816406 72.972656 -58.210938 67.890625 -54.828125 C 62.804688 -51.441406 57.90625 -47.519531 53.1875 -43.0625 C 48.476562 -38.613281 44.0625 -33.863281 39.9375 -28.8125 C 35.8125 -23.769531 32.082031 -18.664062 28.75 -13.5 C 25.414062 -8.34375 22.582031 -3.363281 20.25 1.4375 C 19.226562 3.84375 18.238281 6.253906 17.28125 8.671875 C 16.84375 9.773438 16.394531 10.878906 15.9375 11.984375 C 15.863281 12.171875 15.789062 12.359375 15.71875 12.546875 C 15.570312 12.960938 15.394531 13.367188 15.1875 13.765625 C 15.019531 14.097656 14.78125 14.328125 14.46875 14.453125 C 14.15625 14.578125 13.820312 14.578125 13.46875 14.453125 C 13.164062 14.347656 13 14.117188 12.96875 13.765625 C 12.96875 13.296875 13.007812 12.828125 13.09375 12.359375 C 13.382812 10.648438 13.613281 8.945312 13.78125 7.25 C 13.945312 5.550781 14.082031 3.847656 14.1875 2.140625 C 14.226562 1.640625 14.257812 1.128906 14.28125 0.609375 C 14.3125 0.378906 14.34375 0.140625 14.375 -0.109375 C 14.59375 -3.046875 14.78125 -5.992188 14.9375 -8.953125 C 15 -10.347656 15.019531 -11.734375 15 -13.109375 C 15 -13.628906 15 -14.15625 15 -14.6875 C 15 -14.707031 15 -14.734375 15 -14.765625 C 15.019531 -15.140625 15 -15.5 14.9375 -15.84375 C 14.875 -16.09375 14.832031 -16.359375 14.8125 -16.640625 C 14.769531 -17.035156 14.695312 -17.425781 14.59375 -17.8125 C 14.488281 -18.195312 14.289062 -18.539062 14 -18.84375 C 13.519531 -18.789062 13.132812 -18.609375 12.84375 -18.296875 C 12.550781 -17.984375 12.3125 -17.628906 12.125 -17.234375 C 12 -17.035156 11.875 -16.847656 11.75 -16.671875 C 10.394531 -14.671875 9.191406 -12.582031 8.140625 -10.40625 C 7.359375 -8.851562 6.582031 -7.304688 5.8125 -5.765625 C 4.707031 -3.554688 3.609375 -1.34375 2.515625 0.875 C 2.140625 1.59375 1.75 2.304688 1.34375 3.015625 C 1.15625 3.367188 0.921875 3.679688 0.640625 3.953125 C 0.0859375 4.429688 -0.460938 4.578125 -1.015625 4.390625 C -1.566406 4.203125 -1.875 3.742188 -1.9375 3.015625 C -2.019531 1.910156 -2 0.796875 -1.875 -0.328125 C -1.726562 -2.398438 -1.53125 -4.472656 -1.28125 -6.546875 C -1.09375 -7.898438 -0.914062 -9.25 -0.75 -10.59375 C 0.300781 -18.875 1.28125 -27.175781 2.1875 -35.5 C 2.25 -36.195312 2.375 -36.894531 2.5625 -37.59375 C 2.6875 -38.09375 3 -38.429688 3.5 -38.609375 C 3.71875 -38.660156 3.925781 -38.632812 4.125 -38.53125 C 4.332031 -38.4375 4.4375 -38.265625 4.4375 -38.015625 C 4.4375 -37.460938 4.40625 -36.898438 4.34375 -36.328125 C 4.09375 -32.578125 3.738281 -28.742188 3.28125 -24.828125 C 2.820312 -20.910156 2.316406 -16.992188 1.765625 -13.078125 C 1.316406 -9.703125 0.894531 -6.378906 0.5 -3.109375 C 0.46875 -2.859375 0.4375 -2.609375 0.40625 -2.359375 C 0.3125 -1.648438 0.226562 -0.945312 0.15625 -0.25 C 0.15625 -0.175781 0.179688 -0.109375 0.234375 -0.046875 C 0.285156 0.015625 0.332031 0.0546875 0.375 0.078125 C 0.425781 0.078125 0.492188 0.0625 0.578125 0.03125 C 0.671875 0 0.726562 -0.046875 0.75 -0.109375 C 1.101562 -0.734375 1.441406 -1.367188 1.765625 -2.015625 C 2.390625 -3.265625 3.015625 -4.515625 3.640625 -5.765625 C 4.890625 -8.265625 6.15625 -10.765625 7.4375 -13.265625 C 8.28125 -14.910156 9.238281 -16.484375 10.3125 -17.984375 C 10.8125 -18.734375 11.398438 -19.382812 12.078125 -19.9375 C 13.046875 -20.632812 13.941406 -20.863281 14.765625 -20.625 C 15.597656 -20.382812 16.226562 -19.703125 16.65625 -18.578125 C 16.976562 -17.554688 17.164062 -16.492188 17.21875 -15.390625 C 17.320312 -14.046875 17.347656 -12.695312 17.296875 -11.34375 C 17.242188 -10 17.164062 -8.648438 17.0625 -7.296875 C 17.039062 -7.046875 17.03125 -6.796875 17.03125 -6.546875 C 16.882812 -4.171875 16.707031 -1.757812 16.5 0.6875 C 16.425781 1.757812 16.351562 2.847656 16.28125 3.953125 C 16.570312 3.742188 16.785156 3.539062 16.921875 3.34375 C 17.066406 3.144531 17.164062 2.960938 17.21875 2.796875 C 17.238281 2.710938 17.273438 2.632812 17.328125 2.5625 C 19.421875 -2.40625 22.082031 -7.523438 25.3125 -12.796875 C 28.539062 -18.078125 32.195312 -23.285156 36.28125 -28.421875 C 40.363281 -33.566406 44.757812 -38.425781 49.46875 -43 C 54.1875 -47.570312 59.109375 -51.640625 64.234375 -55.203125 C 69.359375 -58.765625 74.554688 -61.597656 79.828125 -63.703125 C 85.109375 -65.816406 90.347656 -66.992188 95.546875 -67.234375 C 100.742188 -67.472656 105.789062 -66.539062 110.6875 -64.4375 C 115.59375 -62.34375 120.222656 -58.867188 124.578125 -54.015625 C 124.617188 -53.941406 124.664062 -53.867188 124.71875 -53.796875 C 125.144531 -53.421875 125.457031 -52.945312 125.65625 -52.375 C 125.707031 -52.164062 125.671875 -51.976562 125.546875 -51.8125 C 125.421875 -51.65625 125.253906 -51.566406 125.046875 -51.546875 C 124.828125 -51.546875 124.632812 -51.597656 124.46875 -51.703125 C 124.3125 -51.816406 124.160156 -51.976562 124.015625 -52.1875 Z M 124.015625 -52.1875 "/></g></g></g><g fill="#000000" fill-opacity="1"><g transform="translate(226.776426, 197.643137)"><g><path d="M 6.765625 -7.1875 C 6.160156 -6.46875 5.441406 -5.804688 4.609375 -5.203125 C 3.785156 -4.597656 2.847656 -4.191406 1.796875 -3.984375 C 0.753906 -3.773438 -0.0507812 -3.847656 -0.625 -4.203125 C -1.207031 -4.566406 -1.320312 -5.375 -0.96875 -6.625 C -0.519531 -7.925781 0.101562 -9.160156 0.90625 -10.328125 C 1.082031 -10.578125 1.34375 -10.753906 1.6875 -10.859375 C 1.9375 -10.910156 2.15625 -10.863281 2.34375 -10.71875 C 2.53125 -10.582031 2.601562 -10.40625 2.5625 -10.1875 C 2.382812 -9.78125 2.191406 -9.375 1.984375 -8.96875 C 1.785156 -8.5625 1.648438 -8.296875 1.578125 -8.171875 C 1.179688 -7.441406 0.90625 -6.675781 0.75 -5.875 C 0.75 -5.425781 1.351562 -5.398438 2.5625 -5.796875 C 3.78125 -6.191406 4.960938 -6.921875 6.109375 -7.984375 C 7.265625 -9.046875 7.816406 -9.359375 7.765625 -8.921875 C 7.710938 -8.484375 7.378906 -7.90625 6.765625 -7.1875 Z M 3.796875 -12.890625 C 3.742188 -12.835938 3.628906 -12.78125 3.453125 -12.71875 C 3.273438 -12.65625 3.085938 -12.609375 2.890625 -12.578125 C 2.691406 -12.554688 2.535156 -12.585938 2.421875 -12.671875 C 2.304688 -12.765625 2.300781 -12.945312 2.40625 -13.21875 C 2.582031 -13.695312 2.769531 -14.113281 2.96875 -14.46875 C 3.164062 -14.832031 3.425781 -15.226562 3.75 -15.65625 C 3.957031 -15.851562 4.175781 -15.957031 4.40625 -15.96875 C 4.644531 -15.988281 4.84375 -15.925781 5 -15.78125 C 5.164062 -15.644531 5.210938 -15.453125 5.140625 -15.203125 C 4.890625 -14.304688 4.441406 -13.535156 3.796875 -12.890625 Z M 3.796875 -12.890625 "/></g></g></g><g fill="#000000" fill-opacity="1"><g transform="translate(232.723973, 197.643137)"><g><path d="M 8.25 -8.125 C 8.625 -8.5 8.9375 -8.707031 9.1875 -8.75 C 9.4375 -8.800781 9.597656 -8.765625 9.671875 -8.640625 C 9.742188 -8.515625 9.695312 -8.34375 9.53125 -8.125 C 8.53125 -6.925781 7.410156 -5.890625 6.171875 -5.015625 C 4.929688 -4.140625 3.65625 -3.632812 2.34375 -3.5 C 1.03125 -3.363281 0.238281 -4.078125 -0.03125 -5.640625 C -0.238281 -7.203125 0.703125 -10.375 2.796875 -15.15625 C 4.890625 -19.9375 6.539062 -23.851562 7.75 -26.90625 C 7.851562 -27.1875 8.007812 -27.425781 8.21875 -27.625 C 8.488281 -27.894531 8.8125 -27.957031 9.1875 -27.8125 C 9.3125 -27.757812 9.4375 -27.671875 9.5625 -27.546875 C 9.6875 -27.421875 9.726562 -27.195312 9.6875 -26.875 C 4.3125 -14.125 1.707031 -7.191406 1.875 -6.078125 C 2.039062 -4.972656 2.757812 -4.703125 4.03125 -5.265625 C 5.300781 -5.828125 6.28125 -6.398438 6.96875 -6.984375 C 7.65625 -7.566406 8.082031 -7.945312 8.25 -8.125 Z M 8.25 -8.125 "/></g></g></g><g fill="#000000" fill-opacity="1"><g transform="translate(240.528925, 197.643137)"><g><path d="M 8.25 -8.125 C 8.625 -8.5 8.9375 -8.707031 9.1875 -8.75 C 9.4375 -8.800781 9.597656 -8.765625 9.671875 -8.640625 C 9.742188 -8.515625 9.695312 -8.34375 9.53125 -8.125 C 8.53125 -6.925781 7.410156 -5.890625 6.171875 -5.015625 C 4.929688 -4.140625 3.65625 -3.632812 2.34375 -3.5 C 1.03125 -3.363281 0.238281 -4.078125 -0.03125 -5.640625 C -0.238281 -7.203125 0.703125 -10.375 2.796875 -15.15625 C 4.890625 -19.9375 6.539062 -23.851562 7.75 -26.90625 C 7.851562 -27.1875 8.007812 -27.425781 8.21875 -27.625 C 8.488281 -27.894531 8.8125 -27.957031 9.1875 -27.8125 C 9.3125 -27.757812 9.4375 -27.671875 9.5625 -27.546875 C 9.6875 -27.421875 9.726562 -27.195312 9.6875 -26.875 C 4.3125 -14.125 1.707031 -7.191406 1.875 -6.078125 C 2.039062 -4.972656 2.757812 -4.703125 4.03125 -5.265625 C 5.300781 -5.828125 6.28125 -6.398438 6.96875 -6.984375 C 7.65625 -7.566406 8.082031 -7.945312 8.25 -8.125 Z M 8.25 -8.125 "/></g></g></g><g fill="#000000" fill-opacity="1"><g transform="translate(248.333876, 197.643137)"><g><path d="M 2.703125 -4.046875 L 2.65625 -4.046875 C 1.007812 -4.066406 -0.0703125 -4.429688 -0.59375 -5.140625 C -1.113281 -5.847656 -1.09375 -6.796875 -0.53125 -7.984375 C -0.0507812 -8.878906 0.550781 -9.660156 1.28125 -10.328125 C 1.53125 -10.554688 1.785156 -10.738281 2.046875 -10.875 C 2.304688 -11.007812 2.601562 -11.078125 2.9375 -11.078125 C 3.125 -11.109375 3.34375 -11.070312 3.59375 -10.96875 C 3.675781 -10.945312 3.753906 -10.921875 3.828125 -10.890625 C 4.023438 -10.921875 4.210938 -10.984375 4.390625 -11.078125 C 4.441406 -11.109375 4.503906 -11.132812 4.578125 -11.15625 C 4.953125 -11.3125 5.351562 -11.375 5.78125 -11.34375 C 5.945312 -11.34375 6.125 -11.34375 6.3125 -11.34375 C 6.976562 -11.25 7.476562 -10.96875 7.8125 -10.5 C 8.15625 -10.039062 8.28125 -9.484375 8.1875 -8.828125 C 8.125 -8.429688 8 -8.054688 7.8125 -7.703125 C 6.5 -5.359375 4.832031 -4.140625 2.8125 -4.046875 Z M 5.40625 -10.140625 C 4.507812 -10.171875 3.707031 -9.910156 3 -9.359375 C 2.300781 -8.816406 1.78125 -8.1875 1.4375 -7.46875 C 1.101562 -6.75 1.007812 -6.160156 1.15625 -5.703125 C 1.3125 -5.242188 1.789062 -5.113281 2.59375 -5.3125 C 3.488281 -5.59375 4.28125 -6.109375 4.96875 -6.859375 C 5.65625 -7.609375 6.070312 -8.316406 6.21875 -8.984375 C 6.375 -9.660156 6.101562 -10.046875 5.40625 -10.140625 Z M 5.40625 -10.140625 "/></g></g></g><g fill="#000000" fill-opacity="1"><g transform="translate(256.684129, 197.643137)"><g><path d="M 10.65625 -8.234375 C 9.132812 -6.441406 7.640625 -5.117188 6.171875 -4.265625 C 4.710938 -3.410156 3.148438 -3.128906 1.484375 -3.421875 C -0.171875 -3.710938 -0.851562 -4.828125 -0.5625 -6.765625 C -0.351562 -7.742188 -0.078125 -8.695312 0.265625 -9.625 C 1.140625 -11.800781 2.03125 -13.960938 2.9375 -16.109375 C 3.226562 -16.878906 3.539062 -17.65625 3.875 -18.4375 C 3.945312 -18.613281 4.019531 -18.785156 4.09375 -18.953125 C 4.21875 -19.234375 4.34375 -19.523438 4.46875 -19.828125 C 4.644531 -20.328125 4.445312 -20.585938 3.875 -20.609375 C 3.539062 -20.609375 3.210938 -20.609375 2.890625 -20.609375 C 2.742188 -20.609375 2.582031 -20.609375 2.40625 -20.609375 C 2.226562 -20.585938 2.050781 -20.5625 1.875 -20.53125 C 1.582031 -20.507812 1.289062 -20.5 1 -20.5 C 0.707031 -20.5 0.4375 -20.570312 0.1875 -20.71875 C 0.113281 -20.75 0.0546875 -20.796875 0.015625 -20.859375 C -0.015625 -20.921875 -0.03125 -20.988281 -0.03125 -21.0625 C -0.0078125 -21.113281 0.0234375 -21.171875 0.078125 -21.234375 C 0.128906 -21.296875 0.191406 -21.335938 0.265625 -21.359375 C 0.515625 -21.460938 0.78125 -21.535156 1.0625 -21.578125 C 1.757812 -21.609375 2.457031 -21.632812 3.15625 -21.65625 C 3.425781 -21.65625 3.664062 -21.65625 3.875 -21.65625 C 4.320312 -21.65625 4.65625 -21.671875 4.875 -21.703125 C 5.101562 -21.742188 5.285156 -21.863281 5.421875 -22.0625 C 5.554688 -22.269531 5.710938 -22.585938 5.890625 -23.015625 C 5.992188 -23.234375 6.117188 -23.484375 6.265625 -23.765625 C 6.640625 -24.554688 7.015625 -25.367188 7.390625 -26.203125 C 7.566406 -26.578125 7.742188 -26.9375 7.921875 -27.28125 C 8.066406 -27.632812 8.300781 -27.910156 8.625 -28.109375 C 8.925781 -28.253906 9.191406 -28.242188 9.421875 -28.078125 C 9.492188 -28.023438 9.546875 -27.945312 9.578125 -27.84375 C 9.617188 -27.75 9.640625 -27.660156 9.640625 -27.578125 C 9.640625 -27.128906 9.53125 -26.691406 9.3125 -26.265625 C 9.257812 -26.171875 9.207031 -26.0625 9.15625 -25.9375 C 9.007812 -25.53125 8.847656 -25.117188 8.671875 -24.703125 C 8.347656 -23.921875 8.035156 -23.128906 7.734375 -22.328125 C 7.660156 -22.179688 7.660156 -22.050781 7.734375 -21.9375 C 7.804688 -21.820312 7.914062 -21.765625 8.0625 -21.765625 C 8.863281 -21.742188 9.65625 -21.734375 10.4375 -21.734375 C 10.832031 -21.734375 11.226562 -21.734375 11.625 -21.734375 C 12.875 -21.710938 13.375 -21.535156 13.125 -21.203125 C 12.957031 -21.003906 12.769531 -20.890625 12.5625 -20.859375 C 12.363281 -20.835938 12.164062 -20.84375 11.96875 -20.875 C 11.84375 -20.875 11.71875 -20.875 11.59375 -20.875 C 10.320312 -20.800781 9.0625 -20.75 7.8125 -20.71875 C 7.226562 -20.71875 6.835938 -20.457031 6.640625 -19.9375 C 6.441406 -19.4375 6.242188 -18.9375 6.046875 -18.4375 C 5.765625 -17.78125 5.5 -17.140625 5.25 -16.515625 C 5 -15.921875 4.75 -15.320312 4.5 -14.71875 C 3.851562 -13.195312 3.226562 -11.671875 2.625 -10.140625 C 2.25 -9.140625 1.953125 -8.117188 1.734375 -7.078125 C 1.253906 -5.179688 1.988281 -4.453125 3.9375 -4.890625 C 5.84375 -5.347656 7.84375 -6.722656 9.9375 -9.015625 C 10.84375 -9.597656 11.082031 -9.335938 10.65625 -8.234375 Z M 10.65625 -8.234375 "/></g></g></g><g fill="#000000" fill-opacity="1"><g transform="translate(143.37692, 245.942033)"><g><path d="M 3.84375 -6.984375 C 4.46875 -6.984375 5.003906 -6.878906 5.453125 -6.671875 C 5.910156 -6.460938 6.257812 -6.164062 6.5 -5.78125 C 6.75 -5.40625 6.875 -4.960938 6.875 -4.453125 C 6.875 -3.929688 6.75 -3.476562 6.5 -3.09375 C 6.257812 -2.71875 5.910156 -2.425781 5.453125 -2.21875 C 5.003906 -2.019531 4.46875 -1.921875 3.84375 -1.921875 L 2.4375 -1.921875 L 2.4375 0 L 0.828125 0 L 0.828125 -6.984375 Z M 3.765625 -3.234375 C 4.242188 -3.234375 4.609375 -3.335938 4.859375 -3.546875 C 5.117188 -3.765625 5.25 -4.066406 5.25 -4.453125 C 5.25 -4.835938 5.117188 -5.132812 4.859375 -5.34375 C 4.609375 -5.550781 4.242188 -5.65625 3.765625 -5.65625 L 2.4375 -5.65625 L 2.4375 -3.234375 Z M 3.765625 -3.234375 "/></g></g></g><g fill="#000000" fill-opacity="1"><g transform="translate(152.672589, 245.942033)"><g><path d="M 4.203125 0.125 C 3.484375 0.125 2.832031 -0.03125 2.25 -0.34375 C 1.664062 -0.65625 1.207031 -1.085938 0.875 -1.640625 C 0.550781 -2.191406 0.390625 -2.804688 0.390625 -3.484375 C 0.390625 -4.171875 0.550781 -4.785156 0.875 -5.328125 C 1.207031 -5.878906 1.664062 -6.3125 2.25 -6.625 C 2.832031 -6.9375 3.484375 -7.09375 4.203125 -7.09375 C 4.929688 -7.09375 5.582031 -6.9375 6.15625 -6.625 C 6.738281 -6.3125 7.195312 -5.878906 7.53125 -5.328125 C 7.863281 -4.785156 8.03125 -4.171875 8.03125 -3.484375 C 8.03125 -2.804688 7.863281 -2.191406 7.53125 -1.640625 C 7.195312 -1.085938 6.738281 -0.65625 6.15625 -0.34375 C 5.582031 -0.03125 4.929688 0.125 4.203125 0.125 Z M 4.203125 -1.25 C 4.617188 -1.25 4.992188 -1.34375 5.328125 -1.53125 C 5.660156 -1.726562 5.921875 -1.992188 6.109375 -2.328125 C 6.296875 -2.671875 6.390625 -3.054688 6.390625 -3.484375 C 6.390625 -3.921875 6.296875 -4.304688 6.109375 -4.640625 C 5.921875 -4.984375 5.660156 -5.25 5.328125 -5.4375 C 4.992188 -5.625 4.617188 -5.71875 4.203125 -5.71875 C 3.796875 -5.71875 3.425781 -5.625 3.09375 -5.4375 C 2.757812 -5.25 2.5 -4.984375 2.3125 -4.640625 C 2.125 -4.304688 2.03125 -3.921875 2.03125 -3.484375 C 2.03125 -3.054688 2.125 -2.671875 2.3125 -2.328125 C 2.5 -1.992188 2.757812 -1.726562 3.09375 -1.53125 C 3.425781 -1.34375 3.796875 -1.25 4.203125 -1.25 Z M 4.203125 -1.25 "/></g></g></g><g fill="#000000" fill-opacity="1"><g transform="translate(163.08519, 245.942033)"><g><path d="M 5.28125 0 L 3.921875 -1.9375 L 2.4375 -1.9375 L 2.4375 0 L 0.828125 0 L 0.828125 -6.984375 L 3.84375 -6.984375 C 4.46875 -6.984375 5.003906 -6.878906 5.453125 -6.671875 C 5.910156 -6.460938 6.257812 -6.164062 6.5 -5.78125 C 6.75 -5.40625 6.875 -4.960938 6.875 -4.453125 C 6.875 -3.929688 6.75 -3.484375 6.5 -3.109375 C 6.25 -2.734375 5.894531 -2.445312 5.4375 -2.25 L 7.015625 0 Z M 5.25 -4.453125 C 5.25 -4.835938 5.117188 -5.132812 4.859375 -5.34375 C 4.609375 -5.550781 4.242188 -5.65625 3.765625 -5.65625 L 2.4375 -5.65625 L 2.4375 -3.234375 L 3.765625 -3.234375 C 4.242188 -3.234375 4.609375 -3.335938 4.859375 -3.546875 C 5.117188 -3.765625 5.25 -4.066406 5.25 -4.453125 Z M 5.25 -4.453125 "/></g></g></g><g fill="#000000" fill-opacity="1"><g transform="translate(172.410774, 245.942033)"><g><path d="M 2.265625 -5.65625 L 0.046875 -5.65625 L 0.046875 -6.984375 L 6.125 -6.984375 L 6.125 -5.65625 L 3.890625 -5.65625 L 3.890625 0 L 2.265625 0 Z M 2.265625 -5.65625 "/></g></g></g><g fill="#000000" fill-opacity="1"><g transform="translate(180.569564, 245.942033)"><g><path d="M 2.4375 -5.6875 L 2.4375 -3.84375 L 5.671875 -3.84375 L 5.671875 -2.546875 L 2.4375 -2.546875 L 2.4375 0 L 0.828125 0 L 0.828125 -6.984375 L 6.09375 -6.984375 L 6.09375 -5.6875 Z M 2.4375 -5.6875 "/></g></g></g><g fill="#000000" fill-opacity="1"><g transform="translate(188.937781, 245.942033)"><g><path d="M 4.203125 0.125 C 3.484375 0.125 2.832031 -0.03125 2.25 -0.34375 C 1.664062 -0.65625 1.207031 -1.085938 0.875 -1.640625 C 0.550781 -2.191406 0.390625 -2.804688 0.390625 -3.484375 C 0.390625 -4.171875 0.550781 -4.785156 0.875 -5.328125 C 1.207031 -5.878906 1.664062 -6.3125 2.25 -6.625 C 2.832031 -6.9375 3.484375 -7.09375 4.203125 -7.09375 C 4.929688 -7.09375 5.582031 -6.9375 6.15625 -6.625 C 6.738281 -6.3125 7.195312 -5.878906 7.53125 -5.328125 C 7.863281 -4.785156 8.03125 -4.171875 8.03125 -3.484375 C 8.03125 -2.804688 7.863281 -2.191406 7.53125 -1.640625 C 7.195312 -1.085938 6.738281 -0.65625 6.15625 -0.34375 C 5.582031 -0.03125 4.929688 0.125 4.203125 0.125 Z M 4.203125 -1.25 C 4.617188 -1.25 4.992188 -1.34375 5.328125 -1.53125 C 5.660156 -1.726562 5.921875 -1.992188 6.109375 -2.328125 C 6.296875 -2.671875 6.390625 -3.054688 6.390625 -3.484375 C 6.390625 -3.921875 6.296875 -4.304688 6.109375 -4.640625 C 5.921875 -4.984375 5.660156 -5.25 5.328125 -5.4375 C 4.992188 -5.625 4.617188 -5.71875 4.203125 -5.71875 C 3.796875 -5.71875 3.425781 -5.625 3.09375 -5.4375 C 2.757812 -5.25 2.5 -4.984375 2.3125 -4.640625 C 2.125 -4.304688 2.03125 -3.921875 2.03125 -3.484375 C 2.03125 -3.054688 2.125 -2.671875 2.3125 -2.328125 C 2.5 -1.992188 2.757812 -1.726562 3.09375 -1.53125 C 3.425781 -1.34375 3.796875 -1.25 4.203125 -1.25 Z M 4.203125 -1.25 "/></g></g></g><g fill="#000000" fill-opacity="1"><g transform="translate(199.350381, 245.942033)"><g><path d="M 0.828125 -6.984375 L 2.4375 -6.984375 L 2.4375 -1.3125 L 5.9375 -1.3125 L 5.9375 0 L 0.828125 0 Z M 0.828125 -6.984375 "/></g></g></g><g fill="#000000" fill-opacity="1"><g transform="translate(207.369553, 245.942033)"><g><path d="M 0.828125 -6.984375 L 2.4375 -6.984375 L 2.4375 0 L 0.828125 0 Z M 0.828125 -6.984375 "/></g></g></g><g fill="#000000" fill-opacity="1"><g transform="translate(212.636273, 245.942033)"><g><path d="M 4.203125 0.125 C 3.484375 0.125 2.832031 -0.03125 2.25 -0.34375 C 1.664062 -0.65625 1.207031 -1.085938 0.875 -1.640625 C 0.550781 -2.191406 0.390625 -2.804688 0.390625 -3.484375 C 0.390625 -4.171875 0.550781 -4.785156 0.875 -5.328125 C 1.207031 -5.878906 1.664062 -6.3125 2.25 -6.625 C 2.832031 -6.9375 3.484375 -7.09375 4.203125 -7.09375 C 4.929688 -7.09375 5.582031 -6.9375 6.15625 -6.625 C 6.738281 -6.3125 7.195312 -5.878906 7.53125 -5.328125 C 7.863281 -4.785156 8.03125 -4.171875 8.03125 -3.484375 C 8.03125 -2.804688 7.863281 -2.191406 7.53125 -1.640625 C 7.195312 -1.085938 6.738281 -0.65625 6.15625 -0.34375 C 5.582031 -0.03125 4.929688 0.125 4.203125 0.125 Z M 4.203125 -1.25 C 4.617188 -1.25 4.992188 -1.34375 5.328125 -1.53125 C 5.660156 -1.726562 5.921875 -1.992188 6.109375 -2.328125 C 6.296875 -2.671875 6.390625 -3.054688 6.390625 -3.484375 C 6.390625 -3.921875 6.296875 -4.304688 6.109375 -4.640625 C 5.921875 -4.984375 5.660156 -5.25 5.328125 -5.4375 C 4.992188 -5.625 4.617188 -5.71875 4.203125 -5.71875 C 3.796875 -5.71875 3.425781 -5.625 3.09375 -5.4375 C 2.757812 -5.25 2.5 -4.984375 2.3125 -4.640625 C 2.125 -4.304688 2.03125 -3.921875 2.03125 -3.484375 C 2.03125 -3.054688 2.125 -2.671875 2.3125 -2.328125 C 2.5 -1.992188 2.757812 -1.726562 3.09375 -1.53125 C 3.425781 -1.34375 3.796875 -1.25 4.203125 -1.25 Z M 4.203125 -1.25 "/></g></g></g></svg>