<?xml version="1.0" standalone="no"?>
<!DOCTYPE svg PUBLIC "-//W3C//DTD SVG 20010904//EN"
 "http://www.w3.org/TR/2001/REC-SVG-20010904/DTD/svg10.dtd">
<svg version="1.0" xmlns="http://www.w3.org/2000/svg"
 width="500.000000pt" height="500.000000pt" viewBox="0 0 500.000000 500.000000"
 preserveAspectRatio="xMidYMid meet">

<g transform="translate(0.000000,500.000000) scale(0.100000,-0.100000)"
fill="#000000" stroke="none">
<path d="M2275 4516 c-232 -75 -412 -301 -583 -731 -127 -321 -181 -630 -143
-817 15 -70 66 -155 110 -185 87 -59 219 -55 382 11 21 9 65 -88 85 -188 23
-111 12 -142 -79 -214 -110 -87 -146 -128 -160 -179 -14 -53 -30 -67 -184
-160 -128 -76 -290 -155 -426 -208 -180 -69 -282 -175 -405 -420 -88 -174
-192 -459 -192 -524 0 -64 36 -118 102 -152 36 -18 85 -19 1695 -19 1184 0
1669 3 1698 11 55 15 120 82 135 138 18 66 5 119 -50 207 -98 160 -193 243
-405 354 -139 73 -269 156 -306 197 l-27 28 44 235 c106 568 124 705 131 997
9 344 -26 603 -116 873 -131 391 -323 623 -596 719 -62 22 -89 25 -235 27 -91
1 -181 7 -200 13 -60 19 -197 13 -275 -13z m275 -17 c19 -6 112 -12 205 -13
157 -1 175 -3 237 -27 258 -100 440 -327 563 -703 91 -276 120 -504 112 -861
-7 -278 -25 -427 -111 -890 -30 -165 -62 -347 -71 -405 -22 -141 -21 -329 0
-415 22 -87 15 -95 -62 -71 -129 41 -259 122 -346 215 -119 129 -171 269 -170
466 0 185 33 322 148 605 126 310 160 457 159 685 0 144 -3 169 -28 250 -15
50 -43 122 -62 162 -19 39 -34 74 -34 77 0 4 23 -1 110 -29 25 -7 25 -7 -5 25
-30 33 -116 80 -146 80 -18 0 -74 76 -61 83 4 2 30 12 59 21 28 10 57 24 64
33 11 13 9 19 -14 39 -15 13 -46 28 -69 35 -39 10 -59 9 -121 -6 -23 -6 -33 3
-102 96 -42 56 -99 149 -126 205 -30 62 -56 104 -67 107 -42 9 -217 -110 -330
-224 -126 -126 -198 -253 -223 -391 -10 -53 -10 -115 -1 -290 17 -316 16 -462
-3 -478 -8 -7 -15 -23 -15 -35 0 -19 -11 -26 -67 -44 -183 -60 -308 -29 -367
91 -98 202 -15 640 209 1103 167 344 370 514 615 515 47 0 101 -5 120 -11z
m90 -324 c34 -76 102 -183 171 -272 54 -69 56 -75 34 -93 -21 -18 -19 -57 4
-70 11 -5 38 -10 60 -10 30 0 43 -5 51 -20 9 -17 8 -20 -8 -20 -24 0 -97 -53
-112 -81 -20 -37 -2 -33 39 9 40 41 95 62 113 44 7 -7 -2 -14 -28 -21 -50 -14
-91 -42 -115 -77 -27 -41 -24 -47 14 -24 42 26 44 25 52 -10 4 -16 18 -39 32
-50 37 -29 76 -26 111 10 l30 29 25 -57 c14 -31 29 -69 32 -83 6 -24 3 -27
-29 -33 -43 -8 -99 -54 -116 -96 -43 -103 49 -224 156 -207 l34 6 0 -47 c0
-51 -15 -155 -30 -213 -12 -45 -73 -80 -186 -109 -190 -49 -378 -12 -693 136
-76 35 -146 64 -158 64 -19 0 -20 8 -27 203 -4 111 -11 268 -17 349 -8 121 -7
161 6 219 29 140 106 269 231 389 80 77 253 200 280 200 9 0 27 -28 44 -65z
m405 -349 c19 -8 35 -19 35 -24 0 -13 -103 -42 -159 -45 -89 -4 -92 37 -5 68
51 18 87 18 129 1z"/>
<path d="M2255 3846 c-37 -16 -59 -41 -50 -56 14 -23 102 -52 173 -57 61 -5
75 -3 92 12 38 34 19 70 -53 100 -44 18 -121 19 -162 1z m156 -27 c54 -24 66
-53 26 -63 -44 -11 -197 24 -197 45 0 14 59 38 93 39 16 0 51 -10 78 -21z"/>
<path d="M2290 3670 c0 -5 11 -10 25 -10 32 0 82 -24 117 -58 15 -14 31 -23
34 -19 25 24 -79 97 -138 97 -21 0 -38 -4 -38 -10z"/>
<path d="M2227 3624 c-47 -15 -137 -90 -137 -114 0 -6 22 1 50 15 61 31 70 31
70 3 1 -40 45 -78 90 -78 33 0 80 53 80 89 0 36 -1 36 47 16 46 -19 46 -19 28
8 -38 59 -146 87 -228 61z"/>
<path d="M2212 3333 c-105 -52 -111 -210 -10 -274 52 -32 128 -22 174 22 62
61 69 147 17 210 -48 57 -118 73 -181 42z"/>
<path d="M2798 3305 c-4 -4 0 -18 9 -32 14 -21 15 -30 5 -56 -6 -17 -9 -33 -6
-36 10 -10 34 32 34 60 0 29 -31 75 -42 64z"/>
<path d="M2536 3278 c-20 -28 -20 -68 -2 -94 20 -27 28 -14 14 23 -10 26 -9
35 5 56 21 32 4 46 -17 15z"/>
<path d="M2580 3230 c-15 -28 -3 -43 29 -35 59 15 71 55 16 55 -24 0 -37 -6
-45 -20z"/>
<path d="M2706 3241 c-9 -14 29 -42 59 -44 33 -2 42 14 20 37 -17 17 -70 22
-79 7z"/>
<path d="M2691 3061 c-7 -5 -30 -7 -50 -4 -28 4 -42 0 -61 -17 l-25 -21 30 7
c17 4 49 8 73 9 23 1 45 5 48 8 4 3 19 0 35 -8 33 -18 39 -18 39 -5 0 9 -51
40 -67 40 -4 0 -14 -4 -22 -9z"/>
<path d="M2696 2973 c-7 -7 -89 -14 -203 -16 -71 -2 -90 -8 -57 -21 26 -10
119 -7 152 5 21 7 41 8 59 1 20 -6 34 -5 49 5 19 12 28 10 75 -12 55 -25 142
-34 154 -15 4 6 -13 10 -45 10 -34 0 -67 8 -100 25 -51 26 -71 30 -84 18z"/>
<path d="M2750 2860 c-42 -23 -98 -25 -147 -5 -42 18 -43 18 -43 4 0 -16 65
-39 112 -39 46 0 128 32 128 50 0 14 -9 12 -50 -10z"/>
</g>
</svg>
